<svg width="44" height="44" fill="none" xmlns="http://www.w3.org/2000/svg"><g clip-path="url(#clip0)"><path d="M39.466 12.408l-10.47-10.47a1.452 1.452 0 00-1.015-.42H5.548c-.792 0-1.435.642-1.435 1.434v41.13c0 .793.643 1.435 1.435 1.435h32.904c.793 0 1.435-.642 1.435-1.434v-30.66c0-.361-.144-.738-.421-1.015zm-9.73 16.1L19.681 38.564a3.854 3.854 0 01-5.445 0 3.854 3.854 0 010-5.445l9.59-9.589a1.435 1.435 0 012.029 2.03l-9.59 9.588a.981.981 0 001.387 1.386L27.707 26.48a3.399 3.399 0 000-4.801 3.399 3.399 0 00-4.8 0l-8.028 8.027a1.435 1.435 0 01-2.03-2.029l8.028-8.027a6.271 6.271 0 018.86 0 6.272 6.272 0 010 8.86zm-.319-16.52V6.416l5.57 5.57h-5.57z" fill="#fff"/></g><defs><clipPath id="clip0"><path fill="#fff" d="M0 0h44v44H0z"/></clipPath></defs></svg>