<svg width="52" height="49" fill="none" xmlns="http://www.w3.org/2000/svg"><path fill-rule="evenodd" clip-rule="evenodd" d="M0 33.843V8.91C6.755 2.942 15.867 0 25.844 0 36.054 0 45.244 3.026 52 9.157V34.09c-5.313 4.695-12.086 7.517-19.59 8.508L26.029 49l-6.462-6.442C12.01 41.514 5.265 38.622 0 33.843z" fill="#FFE5A1"/><path fill-rule="evenodd" clip-rule="evenodd" d="M0 33.843V8.91C6.755 2.942 15.867 0 25.844 0 36.054 0 45.244 3.026 52 9.157V34.09c-5.313 4.695-12.086 7.517-19.59 8.508L26.029 49l-6.462-6.442C12.01 41.514 5.265 38.622 0 33.843z" fill="url(#paint0_linear)"/><defs><linearGradient id="paint0_linear" x1="26" y1="0" x2="26" y2="49" gradientUnits="userSpaceOnUse"><stop stop-color="#fff" stop-opacity=".13"/><stop offset="1" stop-color="#fff" stop-opacity="0"/></linearGradient></defs></svg>