<svg width="24" height="20" viewBox="0 0 24 20" fill="none" xmlns="http://www.w3.org/2000/svg">
<mask id="path-1-inside-1" fill="white">
<path d="M22.2991 1.69538C21.1651 0.564968 19.5983 0 17.5981 0C17.0446 0 16.4796 0.0979763 15.9039 0.293833C15.3279 0.489834 14.792 0.754265 14.2969 1.08694C13.8012 1.41951 13.3752 1.73183 13.0178 2.02341C12.6608 2.31509 12.3214 2.62506 12 2.95308C11.6785 2.62506 11.3392 2.31509 10.9822 2.02341C10.6249 1.73183 10.1987 1.4197 9.70306 1.08694C9.20751 0.754122 8.67176 0.489882 8.0959 0.293833C7.52009 0.0980242 6.95525 0 6.40172 0C4.40165 0 2.83478 0.565112 1.70089 1.69538C0.566993 2.82556 0 4.39319 0 6.3984C0 7.0091 0.105077 7.63814 0.314809 8.28504C0.52454 8.93219 0.763544 9.4837 1.03135 9.93934C1.29911 10.3949 1.60275 10.8394 1.94205 11.2724C2.28134 11.7054 2.52931 12.0036 2.68537 12.1678C2.84158 12.3317 2.96439 12.4503 3.05366 12.5231L11 20H12H13L20.9331 12.5507C22.9778 10.4636 24 8.41276 24 6.3984C24 4.39319 23.433 2.82556 22.2991 1.69538Z"/>
</mask>
<path d="M22.2991 1.69538L20.8872 3.11186L20.8872 3.11189L22.2991 1.69538ZM15.9039 0.293833L15.2598 -1.59961L15.2596 -1.59955L15.9039 0.293833ZM14.2969 1.08694L15.4112 2.74781L15.4124 2.74698L14.2969 1.08694ZM13.0178 2.02341L11.7535 0.473717L11.7523 0.474653L13.0178 2.02341ZM12 2.95308L10.5717 4.35306L13.4286 4.35275L12 2.95308ZM10.9822 2.02341L12.2475 0.474572L12.2468 0.473961L10.9822 2.02341ZM9.70306 1.08694L8.58799 2.74724L8.58825 2.74741L9.70306 1.08694ZM8.0959 0.293833L8.74046 -1.59945L8.7398 -1.59968L8.0959 0.293833ZM1.70089 1.69538L3.11278 3.11192L3.11284 3.11186L1.70089 1.69538ZM0.314809 8.28504L2.21739 7.66844L2.21732 7.66823L0.314809 8.28504ZM1.03135 9.93934L2.75561 8.92597L2.75558 8.92592L1.03135 9.93934ZM1.94205 11.2724L3.5163 10.0388L3.51623 10.0387L1.94205 11.2724ZM2.68537 12.1678L1.2357 13.5456L1.23773 13.5478L2.68537 12.1678ZM3.05366 12.5231L4.42419 11.0665L4.31753 10.973L3.05366 12.5231ZM20.9331 12.5507L22.3021 14.0086L22.3617 13.9503L20.9331 12.5507ZM24 6.3984L22 6.39835V6.3984H24ZM13 20V22L14.3691 21.458L13 20ZM11 20L9.62946 21.4566L11 22V20ZM23.7111 0.278914C22.1138 -1.31327 19.9882 -2 17.5981 -2V2C19.2084 2 20.2164 2.4432 20.8872 3.11186L23.7111 0.278914ZM17.5981 -2C16.8049 -2 16.0226 -1.8591 15.2598 -1.59961L16.548 2.18728C16.9367 2.05505 17.2842 2 17.5981 2V-2ZM15.2596 -1.59955C14.5204 -1.34803 13.8257 -1.00598 13.1815 -0.573107L15.4124 2.74698C15.7584 2.51451 16.1353 2.32769 16.5481 2.18722L15.2596 -1.59955ZM13.1827 -0.573939C12.6482 -0.21534 12.1699 0.134006 11.7535 0.473718L14.2821 3.5731C14.5805 3.32965 14.9542 3.05436 15.4112 2.74781L13.1827 -0.573939ZM11.7523 0.474653C11.3386 0.812705 10.9447 1.17242 10.5714 1.55342L13.4286 4.35275C13.6981 4.0777 13.983 3.81747 14.2832 3.57217L11.7523 0.474653ZM13.4283 1.55311C13.0552 1.17246 12.6615 0.812794 12.2475 0.474572L9.71684 3.57225C10.0169 3.81738 10.3018 4.07766 10.5717 4.35306L13.4283 1.55311ZM12.2468 0.473961C11.8299 0.133736 11.3513 -0.215445 10.8179 -0.573545L8.58825 2.74741C9.04616 3.05485 9.41992 3.32992 9.71759 3.57286L12.2468 0.473961ZM10.8181 -0.573373C10.1735 -1.00629 9.4791 -1.34799 8.74046 -1.59945L7.45134 2.18712C7.86442 2.32775 8.24149 2.51453 8.58799 2.74724L10.8181 -0.573373ZM8.7398 -1.59968C7.97722 -1.859 7.19501 -2 6.40172 -2V2C6.71549 2 7.06295 2.05505 7.452 2.18735L8.7398 -1.59968ZM6.40172 -2C4.01163 -2 1.88602 -1.31308 0.288936 0.278912L3.11284 3.11186C3.78354 2.4433 4.79167 2 6.40172 2V-2ZM0.288996 0.278852C-1.31111 1.87371 -2 4.00331 -2 6.3984H2C2 4.78306 2.44509 3.77741 3.11278 3.11192L0.288996 0.278852ZM-2 6.3984C-2 7.24119 -1.85465 8.07847 -1.5877 8.90185L2.21732 7.66823C2.0648 7.19781 2 6.77701 2 6.3984H-2ZM-1.58777 8.90165C-1.34514 9.6503 -1.05172 10.3422 -0.692883 10.9528L2.75558 8.92592C2.57881 8.62516 2.39422 8.21407 2.21739 7.66844L-1.58777 8.90165ZM-0.692914 10.9527C-0.37832 11.488 -0.0241108 12.0059 0.367866 12.506L3.51623 10.0387C3.22961 9.67297 2.97654 9.30188 2.75561 8.92597L-0.692914 10.9527ZM0.367799 12.506C0.708105 12.9402 1.00753 13.3056 1.2357 13.5456L4.13505 10.79C4.05108 10.7016 3.85458 10.4705 3.5163 10.0388L0.367799 12.506ZM1.23773 13.5478C1.40668 13.725 1.59972 13.9181 1.78978 14.0731L4.31753 10.973C4.33144 10.9844 4.32212 10.9778 4.2834 10.9404C4.24744 10.9057 4.1979 10.8559 4.13302 10.7878L1.23773 13.5478ZM22.3617 13.9503C24.608 11.6574 26 9.13176 26 6.3984H22C22 7.69375 21.3475 9.26978 19.5044 11.151L22.3617 13.9503ZM26 6.39844C26.0001 4.00324 25.311 1.87369 23.711 0.278881L20.8872 3.11189C21.5549 3.77744 22 4.78313 22 6.39835L26 6.39844ZM12 22H13V18H12V22ZM14.3691 21.458L22.3021 14.0086L19.564 11.0927L11.6309 18.542L14.3691 21.458ZM1.68312 13.9797L9.62946 21.4566L12.3705 18.5434L4.42419 11.0665L1.68312 13.9797ZM11 22H12V18H11V22Z" fill="#D4DEEB" mask="url(#path-1-inside-1)"/>
</svg>
