<svg width="24" height="20" fill="none" xmlns="http://www.w3.org/2000/svg">
    <path d="M22.3 1.695C21.164.565 19.597 0 17.597 0c-.553 0-1.118.098-1.694.294a6.79 6.79 0 00-1.607.793c-.496.333-.922.645-1.28.936-.356.292-.696.602-1.017.93-.322-.328-.66-.638-1.018-.93a17.213 17.213 0 00-1.279-.936A6.798 6.798 0 008.096.294 5.244 5.244 0 006.402 0c-2 0-3.567.565-4.701 1.695C.567 2.825 0 4.393 0 6.398c0 .611.105 1.24.315 1.887.21.647.449 1.199.716 1.654.268.456.572.9.911 1.333.34.433.587.732.743.896.157.164.28.282.369.355L11 20h2l7.933-7.45C22.978 10.465 24 8.414 24 6.399c0-2.005-.567-3.572-1.7-4.703z"
          fill="#FFE5A1"/>
</svg>