<svg width="144" height="27" fill="none" xmlns="http://www.w3.org/2000/svg"><path d="M0 5.429v15.173c4.383 3.731 10.341 5.57 16.97 5.57 6.466 0 12.388-1.786 16.77-5.429V5.57C29.359 1.84 23.4 0 16.77 0 10.288 0 4.384 1.786 0 5.429zm33.74 7.71c-2.372 3.077-9.308 6.702-16.752 6.702-7.498 0-14.561-3.713-16.988-6.79 2.373-3.077 9.309-6.702 16.753-6.702 7.498-.018 14.56 3.713 16.988 6.79zM71.81 5.429v15.173c4.384 3.731 10.342 5.57 16.97 5.57 6.466 0 12.389-1.786 16.772-5.429V5.57C101.169 1.84 95.21 0 88.582 0 82.116 0 76.194 1.786 71.81 5.429zm33.742 7.71c-2.373 3.077-9.31 6.702-16.753 6.702-7.498 0-14.561-3.713-16.988-6.79 2.372-3.077 9.309-6.702 16.753-6.702 7.516-.018 14.561 3.713 16.988 6.79z" fill="#282E36"/><path d="M72.517.654H60.98l-16.1 10.01V.653h-6.756v24.882h6.756v-9.921l16.1 9.92h11.356L51.689 13.087 72.517.654zM144 4.421C139.418 1.538 133.242 0 127.392 0c-6.936 0-13.094 1.84-17.133 5.217v5.96l27.8 6.507c-14.307 7.215-27.8-3.307-27.8-3.307v7.374c4.582 2.883 10.758 4.421 16.608 4.421 6.936 0 13.094-1.839 17.133-5.216v-5.96l-27.801-6.508C130.507 1.273 144 11.795 144 11.795V4.421z" fill="#282E36"/></svg>