<svg width="34" height="34" fill="none" xmlns="http://www.w3.org/2000/svg"><path d="M17 0C7.611 0 0 7.61 0 16.999 0 26.39 7.612 34 17 34s17-7.61 17-17S26.388 0 17 0zm-3.58 25.343c.14.073.6.371.724.962.079.43.022.803-.184 1.15-.255.417-.685.647-1.226.647a1.996 1.996 0 01-.828-.19l-.799-.374C7.643 25.7 5.49 21.989 5.49 17.853v-1.706c0-4.134 2.158-7.846 5.637-9.693.033-.012.78-.367.78-.367.258-.122.54-.186.826-.187.54 0 .973.233 1.228.65.206.341.262.717.184 1.145-.138.685-.74.975-.747.98-2.024.916-3.332 3-3.332 5.31v6.034c0 2.306 1.31 4.395 3.356 5.324zm15.09-7.49c0 4.136-2.15 7.848-5.619 9.685l-.794.373c-.26.123-.543.188-.83.191-.541 0-.97-.23-1.226-.648-.204-.346-.26-.72-.184-1.149.121-.59.584-.889.721-.962 2.046-.929 3.36-3.018 3.36-5.325v-6.033c0-2.31-1.308-4.394-3.334-5.31-.003-.005-.608-.295-.747-.98-.076-.428-.02-.804.184-1.145.255-.417.684-.65 1.226-.65.278 0 .567.064.828.187 0 0 .749.355.778.366 3.483 1.848 5.638 5.56 5.638 9.695v1.705z" fill="#4EC9F0"/></svg>