<svg width="38" height="37" viewBox="0 0 38 37" fill="none" xmlns="http://www.w3.org/2000/svg">
<path d="M33.9751 7.17236C34.8459 8.2953 35.5715 9.5269 36.1883 10.831L19.4261 23.1832L12.3875 18.7639V13.4753L19.3898 17.8583L33.9751 7.17236Z" fill="#21A038"/>
<path d="M5.24021 18.4018C5.24021 18.1482 5.24021 17.9309 5.27649 17.6773L1.03152 17.46C1.03152 17.7498 0.995239 18.0758 0.995239 18.3656C0.995239 23.4369 3.0633 28.0373 6.40122 31.3698L9.41261 28.3633C6.83661 25.8276 5.24021 22.3139 5.24021 18.4018Z" fill="url(#paint0_linear)"/>
<path d="M19.3898 4.27479C19.6437 4.27479 19.8614 4.27479 20.1154 4.31101L20.3331 0.0728447C20.0428 0.0728447 19.7163 0.0366211 19.426 0.0366211C14.3466 0.0366211 9.7388 2.10137 6.40088 5.43394L9.41227 8.44051C11.952 5.86863 15.5076 4.27479 19.3898 4.27479Z" fill="url(#paint1_linear)"/>
<path d="M19.3888 32.529C19.1348 32.529 18.9171 32.529 18.6631 32.4928L18.4454 36.7309C18.7357 36.7309 19.0622 36.7672 19.3525 36.7672C24.4319 36.7672 29.0397 34.7024 32.3776 31.3698L29.3662 28.3633C26.8265 30.9714 23.3072 32.529 19.3888 32.529Z" fill="url(#paint2_linear)"/>
<path d="M27.3726 6.7376L30.9645 4.09327C27.808 1.55762 23.7807 0 19.3906 0V4.23817C22.3657 4.27439 25.1231 5.17998 27.3726 6.7376Z" fill="url(#paint3_linear)"/>
<path d="M37.8213 18.4013C37.8213 17.2784 37.7125 16.1917 37.5311 15.105L33.5763 18.0391C33.5763 18.1478 33.5763 18.2927 33.5763 18.4013C33.5763 22.5671 31.7623 26.2981 28.896 28.87L31.7623 32.0214C35.463 28.6888 37.8213 23.7987 37.8213 18.4013Z" fill="#21A038"/>
<path d="M19.3893 32.5293C15.2169 32.5293 11.4798 30.7181 8.90383 27.8564L5.74731 30.7181C9.12152 34.4491 13.9833 36.7675 19.3893 36.7675V32.5293Z" fill="url(#paint4_linear)"/>
<path d="M9.92056 7.93222L7.0543 4.78076C3.31727 8.14956 0.995239 13.0035 0.995239 18.4009H5.24021C5.24021 14.2714 7.0543 10.5041 9.92056 7.93222Z" fill="url(#paint5_linear)"/>
<defs>
<linearGradient id="paint0_linear" x1="5.96212" y1="30.8542" x2="1.62969" y2="18.351" gradientUnits="userSpaceOnUse">
<stop offset="0.1444" stop-color="#F2E913"/>
<stop offset="0.3037" stop-color="#E7E518"/>
<stop offset="0.5823" stop-color="#CADB26"/>
<stop offset="0.891" stop-color="#A3CD39"/>
</linearGradient>
<linearGradient id="paint1_linear" x1="7.61091" y1="4.94257" x2="18.6198" y2="0.75401" gradientUnits="userSpaceOnUse">
<stop offset="0.0592" stop-color="#0FA8E0"/>
<stop offset="0.5385" stop-color="#0099F9"/>
<stop offset="0.9234" stop-color="#0291EB"/>
</linearGradient>
<linearGradient id="paint2_linear" x1="18.1962" y1="33.1519" x2="31.3171" y2="30.1912" gradientUnits="userSpaceOnUse">
<stop offset="0.1226" stop-color="#A3CD39"/>
<stop offset="0.2846" stop-color="#86C339"/>
<stop offset="0.8693" stop-color="#21A038"/>
</linearGradient>
<linearGradient id="paint3_linear" x1="18.5184" y1="2.71166" x2="29.4301" y2="6.07299" gradientUnits="userSpaceOnUse">
<stop offset="0.0566" stop-color="#0291EB"/>
<stop offset="0.79" stop-color="#0C8ACB"/>
</linearGradient>
<linearGradient id="paint4_linear" x1="6.82666" y1="31.4065" x2="18.5436" y2="35.7773" gradientUnits="userSpaceOnUse">
<stop offset="0.1324" stop-color="#F2E913"/>
<stop offset="0.2977" stop-color="#EBE716"/>
<stop offset="0.5306" stop-color="#D9E01F"/>
<stop offset="0.8023" stop-color="#BBD62D"/>
<stop offset="0.9829" stop-color="#A3CD39"/>
</linearGradient>
<linearGradient id="paint5_linear" x1="4.22526" y1="18.9128" x2="8.91016" y2="6.74515" gradientUnits="userSpaceOnUse">
<stop offset="0.0698" stop-color="#A3CD39"/>
<stop offset="0.2599" stop-color="#81C55F"/>
<stop offset="0.9216" stop-color="#0FA8E0"/>
</linearGradient>
</defs>
</svg>
