<svg width="40" height="34" fill="none" xmlns="http://www.w3.org/2000/svg"><path d="M0 7.046v19.713C5.196 31.607 12.266 34 20.12 34c7.674 0 14.684-2.326 19.88-7.046V7.241C34.804 2.393 27.734 0 19.88 0 12.206 0 5.196 2.326 0 7.046z" fill="#282E36"/><path fill-rule="evenodd" clip-rule="evenodd" d="M22.69 9h-5.831A4.86 4.86 0 0012 13.859v5.83a4.86 4.86 0 004.859 4.86h5.83a4.86 4.86 0 004.86-4.86v-5.83A4.86 4.86 0 0022.688 9zm-2.915 4.195a3.578 3.578 0 100 7.156 3.578 3.578 0 000-7.156zm5.233-1.138a1.21 1.21 0 11-2.422 0 1.21 1.21 0 012.422 0z" fill="#fff"/></svg>