<svg width="40" height="34" fill="none" xmlns="http://www.w3.org/2000/svg"><path d="M0 7.046v19.713C5.196 31.607 12.266 34 20.12 34c7.674 0 14.684-2.326 19.88-7.046V7.241C34.804 2.393 27.734 0 19.88 0 12.206 0 5.196 2.326 0 7.046z" fill="#282E36"/><path d="M26.984 18.808c.698.696 1.426 1.36 2.033 2.15.274.348.547.696.73 1.107.272.569.03 1.2-.456 1.233h-3.036c-.79.063-1.396-.253-1.943-.822-.425-.443-.82-.917-1.214-1.391a2.124 2.124 0 00-.546-.506c-.425-.285-.79-.19-1.002.253-.243.474-.304.98-.334 1.485-.03.76-.243.949-.971.98-1.549.064-3.006-.157-4.341-.98-1.184-.727-2.125-1.707-2.914-2.845-1.579-2.244-2.793-4.678-3.886-7.176-.243-.569-.06-.853.546-.885a46.69 46.69 0 012.975 0c.395 0 .668.253.82.632.546 1.36 1.184 2.687 2.003 3.889.213.316.456.632.76.885.364.253.607.158.789-.253a3.58 3.58 0 00.182-.822c.09-.948.09-1.897-.061-2.845-.091-.6-.395-.98-.971-1.107-.304-.063-.243-.158-.122-.347.273-.253.516-.443.972-.443h3.43c.546.127.668.348.728.917V15.9c0 .221.091.885.486 1.012.304.095.516-.158.698-.348.82-.917 1.397-1.992 1.943-3.098.243-.506.425-1.012.637-1.518.152-.379.365-.569.79-.569h3.308c.092 0 .183 0 .304.032.546.095.698.348.546.917-.273.885-.789 1.644-1.305 2.37-.546.791-1.153 1.55-1.7 2.372-.546.758-.516 1.106.122 1.738z" fill="#fff"/></svg>