<svg width="40" height="34" fill="none" xmlns="http://www.w3.org/2000/svg"><path d="M0 7.046v19.713C5.196 31.607 12.266 34 20.12 34c7.674 0 14.684-2.326 19.88-7.046V7.241C34.804 2.393 27.734 0 19.88 0 12.206 0 5.196 2.326 0 7.046z" fill="#282E36"/><path d="M28.855 11.26c-.534-.918-1.113-1.086-2.294-1.15-1.179-.078-4.144-.11-6.712-.11-2.574 0-5.54.032-6.718.108-1.178.066-1.759.233-2.298 1.152-.55.917-.833 2.495-.833 5.275V16.544c0 2.768.283 4.359.833 5.266.54.918 1.119 1.084 2.297 1.161 1.179.067 4.145.106 6.719.106 2.568 0 5.533-.04 6.713-.105 1.18-.077 1.76-.243 2.295-1.161.555-.907.835-2.498.835-5.265v-.01c0-2.78-.28-4.36-.837-5.276zm-11.47 8.845v-7.133l6.153 3.566-6.153 3.567z" fill="#fff"/></svg>