<svg width="96" height="12" fill="none" xmlns="http://www.w3.org/2000/svg"><path d="M6.29 5.372c-.63-.578-1.351-.77-2.2-.77-1.042 0-1.62.315-1.62.856 0 .562.523.874 1.658.944 1.676.106 3.8.471 3.8 2.764 0 1.521-1.28 2.834-3.82 2.834-1.406 0-2.812-.226-4.108-1.538L1.085 8.94c.629.681 2.073 1.19 3.06 1.206.828.016 1.604-.402 1.604-1.033 0-.595-.502-.841-1.764-.91C2.309 8.078.312 7.483.312 5.523c0-1.993 2.124-2.694 3.749-2.694 1.389 0 2.431.262 3.457 1.136L6.29 5.372zM17.881 7.402c0 2.486-1.748 4.5-4.63 4.5-2.884 0-4.61-2.014-4.61-4.5 0-2.469 1.764-4.499 4.592-4.499 2.829 0 4.648 2.03 4.648 4.5zm-7.041 0c0 1.313.81 2.539 2.415 2.539 1.603 0 2.414-1.226 2.414-2.539 0-1.296-.937-2.555-2.415-2.555-1.587 0-2.414 1.26-2.414 2.555zM21.034 3.109v4.486c0 1.313.739 2.31 2.144 2.31 1.351 0 2.271-1.104 2.271-2.416V3.072l2.178.008v8.645h-1.962l-.144-1.173c-.92.874-1.764 1.296-3.01 1.296-2.123 0-3.672-1.558-3.672-4.236V3.1l2.195.009zM32.51.585l.036 2.512h2.448v1.837h-2.47v3.728c0 .824.47 1.226 1.153 1.226 0 0 .561.004 1.114-.197l.406 1.706s-.997.394-1.664.415c-1.929.07-3.187-.997-3.187-3.15V4.934h-1.659V3.097h1.66V.775l2.164-.19zM38.7 0v4.253c.794-.997 1.765-1.296 2.774-1.296 2.52 0 3.639 1.66 3.639 4.2v4.548h-2.2V7.173c0-1.575-.848-2.24-2.017-2.24-1.296 0-2.2 1.067-2.2 2.363v4.409h-2.199V.225L38.701 0zM52.525 11.762V7.14c0-1.136-.612-2.17-1.82-2.17-1.19 0-1.89 1.034-1.89 2.17v4.618h-2.2V3.096l2.035.021.16 1.05c.469-.874 1.494-1.19 2.343-1.19 1.064 0 2.123.419 2.63 1.612.794-1.226 1.82-1.575 2.972-1.575 2.52 0 3.765 1.506 3.765 4.093v4.655h-2.2V7.107c0-1.136-.485-2.1-1.675-2.1s-2.052.997-2.052 2.137l.123 4.618h-2.191zM63.733 8.15c.144 1.065 1.098 1.836 2.647 1.836.81 0 1.874-.299 2.376-.803l1.406 1.349c-.937.943-2.47 1.398-3.82 1.398-3.06 0-4.88-1.837-4.88-4.601 0-2.625 1.836-4.516 4.72-4.516 2.971 0 4.828 1.784 4.482 5.336h-6.931zm4.825-1.769c-.144-1.12-1.043-1.681-2.305-1.681-1.19 0-2.161.562-2.486 1.681h4.79zM81.305 0v11.709h-2.052l-.143-1.19c-.684 1.034-1.781 1.383-2.862 1.383-2.613 0-4.576-1.682-4.576-4.516 0-2.973 1.929-4.515 4.52-4.515.938 0 2.394.492 2.918 1.382V.23L81.305 0zm-7.442 7.386c0 1.505 1.118 2.539 2.52 2.539 1.389 0 2.575-.98 2.575-2.539 0-1.505-1.19-2.518-2.575-2.518-1.402-.004-2.52.96-2.52 2.518zM85.324 1.247c0 1.66-2.592 1.66-2.592 0-.004-1.661 2.592-1.661 2.592 0zM82.927 3.03v8.67h2.199V3.039l-2.2-.008zM93.88 3.068L96 3.08v8.629h-2.073l-.11-1.26c-.506 1.014-1.89 1.506-2.883 1.522-2.63.017-4.576-1.558-4.576-4.585 0-2.973 2.035-4.532 4.631-4.515 1.19 0 2.322.541 2.828 1.398l.064-1.201zm-5.318 4.318c0 1.645 1.17 2.625 2.63 2.625 3.457 0 3.457-5.233 0-5.233-1.46 0-2.63.964-2.63 2.608z" fill="#fff"/></svg>